<svg version="1.1" xmlns="http://www.w3.org/2000/svg" xmlns:xlink="http://www.w3.org/1999/xlink" width="20px" height="20px" viewBox="0,0,256,256"><g fill="#b5c0c6" fill-rule="nonzero" stroke="none" stroke-width="1" stroke-linecap="butt" stroke-linejoin="miter" stroke-miterlimit="10" stroke-dasharray="" stroke-dashoffset="0" font-family="none" font-weight="none" font-size="none" text-anchor="none" style="mix-blend-mode: normal"><g transform="scale(12.8,12.8)"><g id="surface1"><path d="M17.83984,7.96484c-1.01172,-0.04297 -2.39453,-0.23047 -3.31641,-0.62109c0.67578,-2.73437 1.04297,-7.34375 -1.82813,-7.34375c-1.55078,0 -1.96094,1.39063 -2.36328,2.77344c-1.28906,4.44922 -3.28516,5.67969 -5.33203,6.16797v-0.60937h-5v10h5v-0.75391c1.98047,0.19141 3.43359,0.72266 5.14063,1.45703c1.04688,0.44922 2.54297,0.96484 4.44531,0.96484c2.11719,0 3.58203,-0.83203 4.17578,-3.07031c0.41797,-1.56641 1.23828,-6.04297 1.23828,-6.875c0,-1.375 -0.97266,-2.03906 -2.16016,-2.08984zM3.33203,16.66797h-1.66406v-6.66797h1.66406zM16.57813,12.01563c0,0 0.16797,0.00781 0.89453,-0.02344c0.89844,-0.03906 0.875,1.22266 0,1.30078l-1.46484,0.08203c-0.61328,0.07813 -0.54687,1.00391 0.11719,0.97656c0,0 0.57031,-0.01172 0.95313,-0.03125c0.88672,-0.04687 0.84375,1.19141 0.03125,1.29297c-0.35156,0.04297 -1.45312,0.09375 -1.45312,0.09375c-0.67578,0.05859 -0.58984,1.03125 0.08984,0.95313l0.64453,-0.02734c0.68359,-0.0625 0.83594,0.6875 -0.24609,1.38281c-1.30469,0.73438 -3.90234,0.10938 -5.34375,-0.51172c-1.86719,-0.80469 -3.69922,-1.60937 -5.80078,-1.67187v-5c2.71875,-0.62109 5.27344,-1.87891 6.93359,-7.59375c0.75,-2.57422 1.39844,-1.60938 1.39844,0.48047c0,1.72266 -0.40625,3.15234 -0.76562,4.60938c0.88281,0.45313 2.80859,1.16797 5.09766,1.29688c0.88281,0.05078 0.85547,1.21094 -0.03906,1.32031l-1.16406,0.14063c0,0 -0.50781,0.92578 0.11719,0.92969zM16.57813,12.01563"></path></g></g></g></svg>