<svg version="1.1" xmlns="http://www.w3.org/2000/svg" xmlns:xlink="http://www.w3.org/1999/xlink" width="20px" height="20px" viewBox="0,0,256,256"><g fill="#b5c0c6" fill-rule="nonzero" stroke="none" stroke-width="1" stroke-linecap="butt" stroke-linejoin="miter" stroke-miterlimit="10" stroke-dasharray="" stroke-dashoffset="0" font-family="none" font-weight="none" font-size="none" text-anchor="none" style="mix-blend-mode: normal"><g transform="scale(12.8,12.8)"><g id="surface1"><path d="M20,9.94531c0,-0.83203 -0.82031,-5.30859 -1.23828,-6.875c-0.59375,-2.23828 -2.05859,-3.07031 -4.17578,-3.07031c-1.90234,0 -3.39844,0.51563 -4.44531,0.96484c-1.70703,0.73438 -3.16016,1.26562 -5.14062,1.45703v-0.75391h-5v10h5v-0.60937c2.04688,0.48828 4.04297,1.72266 5.33203,6.16797c0.40234,1.38281 0.8125,2.77344 2.36328,2.77344c2.87109,0 2.50391,-4.60937 1.82813,-7.34375c0.92187,-0.39062 2.30469,-0.57812 3.31641,-0.62109c1.1875,-0.05078 2.16016,-0.71484 2.16016,-2.08984zM3.33203,10h-1.66406v-6.66797h1.66406zM16.46094,8.91406l1.16406,0.14063c0.89453,0.10547 0.92188,1.26953 0.04297,1.32031c-2.29297,0.12891 -4.21875,0.84375 -5.10156,1.29688c0.35938,1.45703 0.76563,2.88672 0.76563,4.60938c0,2.08984 -0.64844,3.05469 -1.39844,0.48047c-1.66016,-5.71484 -4.21484,-6.97266 -6.93359,-7.59375v-5c2.10156,-0.0625 3.93359,-0.86719 5.80078,-1.67188c1.44141,-0.62109 4.03906,-1.24609 5.34375,-0.51172c1.08203,0.69531 0.92969,1.44531 0.24609,1.38281l-0.64453,-0.02734c-0.67969,-0.07812 -0.76562,0.89063 -0.08984,0.95313c0,0 1.10156,0.05078 1.45313,0.09375c0.8125,0.10547 0.85547,1.33984 -0.03125,1.29297c-0.38281,-0.01953 -0.95312,-0.03125 -0.95312,-0.03125c-0.66406,-0.02734 -0.73047,0.89844 -0.11719,0.97656c0,0 0.59375,0.00391 1.46484,0.08203c0.875,0.07813 0.89844,1.33984 0,1.30078c-0.72656,-0.03125 -0.89453,-0.02344 -0.89453,-0.02344c-0.625,0.00391 -0.72656,0.85938 -0.11719,0.92969zM16.46094,8.91406"></path></g></g></g></svg>